<?xml version="1.0" encoding="utf-8"?>
<!-- Generator: Adobe Illustrator 16.0.0, SVG Export Plug-In . SVG Version: 6.00 Build 0)  -->
<!DOCTYPE svg PUBLIC "-//W3C//DTD SVG 1.1//EN" "http://www.w3.org/Graphics/SVG/1.1/DTD/svg11.dtd">
<svg version="1.1" id="Layer_1" xmlns="http://www.w3.org/2000/svg" xmlns:xlink="http://www.w3.org/1999/xlink" x="0px" y="0px"
	 width="512px" height="512px" viewBox="0 0 512 512" enable-background="new 0 0 512 512" xml:space="preserve">
<g>
	<g>
		<path fill="#CCCCCC" d="M80,76c0,2.2-1.8,4-4,4H22c-2.2,0-4-1.8-4-4V20c0-2.2,1.8-4,4-4h54c2.2,0,4,1.8,4,4V76z"/>
	</g>
	<g>
		<g>
			<path fill="#E6E6E6" d="M78,74c0,2.2-1.8,4-4,4H20c-2.2,0-4-1.8-4-4V20c0-2.2,1.8-4,4-4h54c2.2,0,4,1.8,4,4V74z"/>
		</g>
		<text transform="matrix(1 0 0 1 32.1187 59.9604)" fill="#666666" font-family="'Lato-Regular'" font-size="44.1584">A</text>
		<text transform="matrix(1 0 0 1 64.3564 71.4722)" fill="#4D4D4D" font-family="'MyriadPro-Semibold'" font-size="11.0396">1</text>
	</g>
</g>
<g>
	<g>
		<path fill="#CCCCCC" d="M160,76c0,2.2-1.8,4-4,4h-54c-2.2,0-4-1.8-4-4V20c0-2.2,1.8-4,4-4h54c2.2,0,4,1.8,4,4V76z"/>
	</g>
	<g>
		<g>
			<path fill="#E6E6E6" d="M158,74c0,2.2-1.8,4-4,4h-54c-2.2,0-4-1.8-4-4V20c0-2.2,1.8-4,4-4h54c2.2,0,4,1.8,4,4V74z"/>
		</g>
		<text transform="matrix(1 0 0 1 112.1187 59.9604)" fill="#666666" font-family="'Lato-Regular'" font-size="44.1584">B</text>
		<text transform="matrix(1 0 0 1 144.356 71.4722)" fill="#4D4D4D" font-family="'MyriadPro-Semibold'" font-size="11.0396">3</text>
	</g>
</g>
<g>
	<g>
		<path fill="#CCCCCC" d="M240,76c0,2.2-1.8,4-4,4h-54c-2.2,0-4-1.8-4-4V20c0-2.2,1.8-4,4-4h54c2.2,0,4,1.8,4,4V76z"/>
	</g>
	<g>
		<g>
			<path fill="#E6E6E6" d="M238,74c0,2.2-1.8,4-4,4h-54c-2.2,0-4-1.8-4-4V20c0-2.2,1.8-4,4-4h54c2.2,0,4,1.8,4,4V74z"/>
		</g>
		<text transform="matrix(1 0 0 1 192.1187 59.9604)" fill="#666666" font-family="'Lato-Regular'" font-size="44.1584">C</text>
		<text transform="matrix(1 0 0 1 224.3564 71.4722)" fill="#4D4D4D" font-family="'MyriadPro-Semibold'" font-size="11.0396">3</text>
	</g>
</g>
<g>
	<g>
		<path fill="#CCCCCC" d="M320,76c0,2.2-1.8,4-4,4h-54c-2.2,0-4-1.8-4-4V20c0-2.2,1.8-4,4-4h54c2.2,0,4,1.8,4,4V76z"/>
	</g>
	<g>
		<g>
			<path fill="#E6E6E6" d="M318,74c0,2.2-1.8,4-4,4h-54c-2.2,0-4-1.8-4-4V20c0-2.2,1.8-4,4-4h54c2.2,0,4,1.8,4,4V74z"/>
		</g>
		<text transform="matrix(1 0 0 1 271.1191 59.9604)" fill="#666666" font-family="'Lato-Regular'" font-size="44.1584">D</text>
		<text transform="matrix(1 0 0 1 304.3564 71.4722)" fill="#4D4D4D" font-family="'MyriadPro-Semibold'" font-size="11.0396">2</text>
	</g>
</g>
<g>
	<g>
		<path fill="#CCCCCC" d="M400,76c0,2.2-1.8,4-4,4h-54c-2.2,0-4-1.8-4-4V20c0-2.2,1.8-4,4-4h54c2.2,0,4,1.8,4,4V76z"/>
	</g>
	<g>
		<g>
			<path fill="#E6E6E6" d="M398,74c0,2.2-1.8,4-4,4h-54c-2.2,0-4-1.8-4-4V20c0-2.2,1.8-4,4-4h54c2.2,0,4,1.8,4,4V74z"/>
		</g>
		<text transform="matrix(1 0 0 1 352.1191 59.9604)" fill="#666666" font-family="'Lato-Regular'" font-size="44.1584">E</text>
		<text transform="matrix(1 0 0 1 384.3555 71.4722)" fill="#4D4D4D" font-family="'MyriadPro-Semibold'" font-size="11.0396">1</text>
	</g>
</g>
<g>
	<g>
		<path fill="#CCCCCC" d="M400,156c0,2.2-1.8,4-4,4h-54c-2.2,0-4-1.8-4-4v-56c0-2.2,1.8-4,4-4h54c2.2,0,4,1.8,4,4V156z"/>
	</g>
	<g>
		<g>
			<path fill="#E6E6E6" d="M398,154c0,2.2-1.8,4-4,4h-54c-2.2,0-4-1.8-4-4v-54c0-2.2,1.8-4,4-4h54c2.2,0,4,1.8,4,4V154z"/>
		</g>
		<text transform="matrix(1 0 0 1 356.1191 139.9604)" fill="#666666" font-family="'Lato-Regular'" font-size="44.1584">J</text>
		<text transform="matrix(1 0 0 1 384.3555 151.4717)" fill="#4D4D4D" font-family="'MyriadPro-Semibold'" font-size="11.0396">8</text>
	</g>
</g>
<g>
	<g>
		<path fill="#CCCCCC" d="M320,156c0,2.2-1.8,4-4,4h-54c-2.2,0-4-1.8-4-4v-56c0-2.2,1.8-4,4-4h54c2.2,0,4,1.8,4,4V156z"/>
	</g>
	<g>
		<g>
			<path fill="#E6E6E6" d="M318,154c0,2.2-1.8,4-4,4h-54c-2.2,0-4-1.8-4-4v-54c0-2.2,1.8-4,4-4h54c2.2,0,4,1.8,4,4V154z"/>
		</g>
		<text transform="matrix(1 0 0 1 280.1191 139.9604)" fill="#666666" font-family="'Lato-Regular'" font-size="44.1584">I</text>
		<text transform="matrix(1 0 0 1 304.3564 151.4717)" fill="#4D4D4D" font-family="'MyriadPro-Semibold'" font-size="11.0396">1</text>
	</g>
</g>
<g>
	<g>
		<path fill="#CCCCCC" d="M240,156c0,2.2-1.8,4-4,4h-54c-2.2,0-4-1.8-4-4v-56c0-2.2,1.8-4,4-4h54c2.2,0,4,1.8,4,4V156z"/>
	</g>
	<g>
		<g>
			<path fill="#E6E6E6" d="M238,154c0,2.2-1.8,4-4,4h-54c-2.2,0-4-1.8-4-4v-54c0-2.2,1.8-4,4-4h54c2.2,0,4,1.8,4,4V154z"/>
		</g>
		<text transform="matrix(1 0 0 1 189.1187 139.9604)" fill="#666666" font-family="'Lato-Regular'" font-size="44.1584">H</text>
		<text transform="matrix(1 0 0 1 224.3564 151.4717)" fill="#4D4D4D" font-family="'MyriadPro-Semibold'" font-size="11.0396">4</text>
	</g>
</g>
<g>
	<g>
		<path fill="#CCCCCC" d="M160,156c0,2.2-1.8,4-4,4h-54c-2.2,0-4-1.8-4-4v-56c0-2.2,1.8-4,4-4h54c2.2,0,4,1.8,4,4V156z"/>
	</g>
	<g>
		<g>
			<path fill="#E6E6E6" d="M158,154c0,2.2-1.8,4-4,4h-54c-2.2,0-4-1.8-4-4v-54c0-2.2,1.8-4,4-4h54c2.2,0,4,1.8,4,4V154z"/>
		</g>
		<text transform="matrix(1 0 0 1 110.1187 139.9604)" fill="#666666" font-family="'Lato-Regular'" font-size="44.1584">G</text>
		<text transform="matrix(1 0 0 1 144.356 151.4717)" fill="#4D4D4D" font-family="'MyriadPro-Semibold'" font-size="11.0396">2</text>
	</g>
</g>
<g>
	<g>
		<path fill="#CCCCCC" d="M80,156c0,2.2-1.8,4-4,4H22c-2.2,0-4-1.8-4-4v-56c0-2.2,1.8-4,4-4h54c2.2,0,4,1.8,4,4V156z"/>
	</g>
	<g>
		<g>
			<path fill="#E6E6E6" d="M78,154c0,2.2-1.8,4-4,4H20c-2.2,0-4-1.8-4-4v-54c0-2.2,1.8-4,4-4h54c2.2,0,4,1.8,4,4V154z"/>
		</g>
		<text transform="matrix(1 0 0 1 34.1187 139.9604)" fill="#666666" font-family="'Lato-Regular'" font-size="44.1584">F</text>
		<text transform="matrix(1 0 0 1 64.3564 151.4717)" fill="#4D4D4D" font-family="'MyriadPro-Semibold'" font-size="11.0396">4</text>
	</g>
</g>
<g>
	<g>
		<path fill="#CCCCCC" d="M80,236c0,2.2-1.8,4-4,4H22c-2.2,0-4-1.8-4-4v-56c0-2.2,1.8-4,4-4h54c2.2,0,4,1.8,4,4V236z"/>
	</g>
	<g>
		<g>
			<path fill="#E6E6E6" d="M78,234c0,2.2-1.8,4-4,4H20c-2.2,0-4-1.8-4-4v-54c0-2.2,1.8-4,4-4h54c2.2,0,4,1.8,4,4V234z"/>
		</g>
		<text transform="matrix(1 0 0 1 32.1187 219.9604)" fill="#666666" font-family="'Lato-Regular'" font-size="44.1584">K</text>
		<text transform="matrix(1 0 0 1 64.3564 231.4717)" fill="#4D4D4D" font-family="'MyriadPro-Semibold'" font-size="11.0396">5</text>
	</g>
</g>
<g>
	<g>
		<path fill="#CCCCCC" d="M160,236c0,2.2-1.8,4-4,4h-54c-2.2,0-4-1.8-4-4v-56c0-2.2,1.8-4,4-4h54c2.2,0,4,1.8,4,4V236z"/>
	</g>
	<g>
		<g>
			<path fill="#E6E6E6" d="M158,234c0,2.2-1.8,4-4,4h-54c-2.2,0-4-1.8-4-4v-54c0-2.2,1.8-4,4-4h54c2.2,0,4,1.8,4,4V234z"/>
		</g>
		<text transform="matrix(1 0 0 1 112.1187 219.9604)" fill="#666666" font-family="'Lato-Regular'" font-size="44.1584">L</text>
		<text transform="matrix(1 0 0 1 144.356 231.4717)" fill="#4D4D4D" font-family="'MyriadPro-Semibold'" font-size="11.0396">1</text>
	</g>
</g>
<g>
	<g>
		<path fill="#CCCCCC" d="M240,236c0,2.2-1.8,4-4,4h-54c-2.2,0-4-1.8-4-4v-56c0-2.2,1.8-4,4-4h54c2.2,0,4,1.8,4,4V236z"/>
	</g>
	<g>
		<g>
			<path fill="#E6E6E6" d="M238,234c0,2.2-1.8,4-4,4h-54c-2.2,0-4-1.8-4-4v-54c0-2.2,1.8-4,4-4h54c2.2,0,4,1.8,4,4V234z"/>
		</g>
		<text transform="matrix(1 0 0 1 187.1187 219.9604)" fill="#666666" font-family="'Lato-Regular'" font-size="44.1584">M</text>
		<text transform="matrix(1 0 0 1 224.3564 231.4717)" fill="#4D4D4D" font-family="'MyriadPro-Semibold'" font-size="11.0396">4</text>
	</g>
</g>
<g>
	<g>
		<path fill="#CCCCCC" d="M320,236c0,2.2-1.8,4-4,4h-54c-2.2,0-4-1.8-4-4v-56c0-2.2,1.8-4,4-4h54c2.2,0,4,1.8,4,4V236z"/>
	</g>
	<g>
		<g>
			<path fill="#E6E6E6" d="M318,234c0,2.2-1.8,4-4,4h-54c-2.2,0-4-1.8-4-4v-54c0-2.2,1.8-4,4-4h54c2.2,0,4,1.8,4,4V234z"/>
		</g>
		<text transform="matrix(1 0 0 1 270.1191 219.9604)" fill="#666666" font-family="'Lato-Regular'" font-size="44.1584">N</text>
		<text transform="matrix(1 0 0 1 304.3564 231.4717)" fill="#4D4D4D" font-family="'MyriadPro-Semibold'" font-size="11.0396">1</text>
	</g>
</g>
<g>
	<g>
		<path fill="#CCCCCC" d="M400,236c0,2.2-1.8,4-4,4h-54c-2.2,0-4-1.8-4-4v-56c0-2.2,1.8-4,4-4h54c2.2,0,4,1.8,4,4V236z"/>
	</g>
	<g>
		<g>
			<path fill="#E6E6E6" d="M398,234c0,2.2-1.8,4-4,4h-54c-2.2,0-4-1.8-4-4v-54c0-2.2,1.8-4,4-4h54c2.2,0,4,1.8,4,4V234z"/>
		</g>
		<text transform="matrix(1 0 0 1 349.1191 219.9604)" fill="#666666" font-family="'Lato-Regular'" font-size="44.1584">O</text>
		<text transform="matrix(1 0 0 1 384.3555 231.4717)" fill="#4D4D4D" font-family="'MyriadPro-Semibold'" font-size="11.0396">1</text>
	</g>
</g>
<g>
	<g>
		<path fill="#CCCCCC" d="M400,316c0,2.2-1.8,4-4,4h-54c-2.2,0-4-1.8-4-4v-56c0-2.2,1.8-4,4-4h54c2.2,0,4,1.8,4,4V316z"/>
	</g>
	<g>
		<g>
			<path fill="#E6E6E6" d="M398,314c0,2.2-1.8,4-4,4h-54c-2.2,0-4-1.8-4-4v-54c0-2.2,1.8-4,4-4h54c2.2,0,4,1.8,4,4V314z"/>
		</g>
		<text transform="matrix(1 0 0 1 352.1191 299.9609)" fill="#666666" font-family="'Lato-Regular'" font-size="44.1584">T</text>
		<text transform="matrix(1 0 0 1 384.3555 311.4727)" fill="#4D4D4D" font-family="'MyriadPro-Semibold'" font-size="11.0396">1</text>
	</g>
</g>
<g>
	<g>
		<path fill="#CCCCCC" d="M320,316c0,2.2-1.8,4-4,4h-54c-2.2,0-4-1.8-4-4v-56c0-2.2,1.8-4,4-4h54c2.2,0,4,1.8,4,4V316z"/>
	</g>
	<g>
		<g>
			<path fill="#E6E6E6" d="M318,314c0,2.2-1.8,4-4,4h-54c-2.2,0-4-1.8-4-4v-54c0-2.2,1.8-4,4-4h54c2.2,0,4,1.8,4,4V314z"/>
		</g>
		<text transform="matrix(1 0 0 1 272.1191 299.9609)" fill="#666666" font-family="'Lato-Regular'" font-size="44.1584">S</text>
		<text transform="matrix(1 0 0 1 304.3564 311.4727)" fill="#4D4D4D" font-family="'MyriadPro-Semibold'" font-size="11.0396">1</text>
	</g>
</g>
<g>
	<g>
		<path fill="#CCCCCC" d="M240,316c0,2.2-1.8,4-4,4h-54c-2.2,0-4-1.8-4-4v-56c0-2.2,1.8-4,4-4h54c2.2,0,4,1.8,4,4V316z"/>
	</g>
	<g>
		<g>
			<path fill="#E6E6E6" d="M238,314c0,2.2-1.8,4-4,4h-54c-2.2,0-4-1.8-4-4v-54c0-2.2,1.8-4,4-4h54c2.2,0,4,1.8,4,4V314z"/>
		</g>
		<text transform="matrix(1 0 0 1 192.1187 299.9609)" fill="#666666" font-family="'Lato-Regular'" font-size="44.1584">R</text>
		<text transform="matrix(1 0 0 1 224.3564 311.4727)" fill="#4D4D4D" font-family="'MyriadPro-Semibold'" font-size="11.0396">1</text>
	</g>
</g>
<g>
	<g>
		<path fill="#CCCCCC" d="M160,316c0,2.2-1.8,4-4,4h-54c-2.2,0-4-1.8-4-4v-56c0-2.2,1.8-4,4-4h54c2.2,0,4,1.8,4,4V316z"/>
	</g>
	<g>
		<g>
			<path fill="#E6E6E6" d="M158,314c0,2.2-1.8,4-4,4h-54c-2.2,0-4-1.8-4-4v-54c0-2.2,1.8-4,4-4h54c2.2,0,4,1.8,4,4V314z"/>
		</g>
		<text transform="matrix(1 0 0 1 107.1187 299.9609)" fill="#666666" font-family="'Lato-Regular'" font-size="44.1584">Q</text>
		<text transform="matrix(1 0 0 1 142.356 311.4727)" fill="#4D4D4D" font-family="'MyriadPro-Semibold'" font-size="11.0396">10</text>
	</g>
</g>
<g>
	<g>
		<path fill="#CCCCCC" d="M80,316c0,2.2-1.8,4-4,4H22c-2.2,0-4-1.8-4-4v-56c0-2.2,1.8-4,4-4h54c2.2,0,4,1.8,4,4V316z"/>
	</g>
	<g>
		<g>
			<path fill="#E6E6E6" d="M78,314c0,2.2-1.8,4-4,4H20c-2.2,0-4-1.8-4-4v-54c0-2.2,1.8-4,4-4h54c2.2,0,4,1.8,4,4V314z"/>
		</g>
		<text transform="matrix(1 0 0 1 32.1187 299.9609)" fill="#666666" font-family="'Lato-Regular'" font-size="44.1584">P</text>
		<text transform="matrix(1 0 0 1 64.3564 311.4727)" fill="#4D4D4D" font-family="'MyriadPro-Semibold'" font-size="11.0396">3</text>
	</g>
</g>
<g>
	<g>
		<path fill="#CCCCCC" d="M80,396c0,2.2-1.8,4-4,4H22c-2.2,0-4-1.8-4-4v-56c0-2.2,1.8-4,4-4h54c2.2,0,4,1.8,4,4V396z"/>
	</g>
	<g>
		<g>
			<path fill="#E6E6E6" d="M78,394c0,2.2-1.8,4-4,4H20c-2.2,0-4-1.8-4-4v-54c0-2.2,1.8-4,4-4h54c2.2,0,4,1.8,4,4V394z"/>
		</g>
		<text transform="matrix(1 0 0 1 31.1187 379.9609)" fill="#666666" font-family="'Lato-Regular'" font-size="44.1584">U</text>
		<text transform="matrix(1 0 0 1 64.3564 391.4717)" fill="#4D4D4D" font-family="'MyriadPro-Semibold'" font-size="11.0396">1</text>
	</g>
</g>
<g>
	<g>
		<path fill="#CCCCCC" d="M160,396c0,2.2-1.8,4-4,4h-54c-2.2,0-4-1.8-4-4v-56c0-2.2,1.8-4,4-4h54c2.2,0,4,1.8,4,4V396z"/>
	</g>
	<g>
		<g>
			<path fill="#E6E6E6" d="M158,394c0,2.2-1.8,4-4,4h-54c-2.2,0-4-1.8-4-4v-54c0-2.2,1.8-4,4-4h54c2.2,0,4,1.8,4,4V394z"/>
		</g>
		<text transform="matrix(1 0 0 1 112.1187 379.9609)" fill="#666666" font-family="'Lato-Regular'" font-size="44.1584">V</text>
		<text transform="matrix(1 0 0 1 144.356 391.4717)" fill="#4D4D4D" font-family="'MyriadPro-Semibold'" font-size="11.0396">4</text>
	</g>
</g>
<g>
	<g>
		<path fill="#CCCCCC" d="M240,396c0,2.2-1.8,4-4,4h-54c-2.2,0-4-1.8-4-4v-56c0-2.2,1.8-4,4-4h54c2.2,0,4,1.8,4,4V396z"/>
	</g>
	<g>
		<g>
			<path fill="#E6E6E6" d="M238,394c0,2.2-1.8,4-4,4h-54c-2.2,0-4-1.8-4-4v-54c0-2.2,1.8-4,4-4h54c2.2,0,4,1.8,4,4V394z"/>
		</g>
		<text transform="matrix(1 0 0 1 184.1187 379.9609)" fill="#666666" font-family="'Lato-Regular'" font-size="44.1584">W</text>
		<text transform="matrix(1 0 0 1 224.3564 391.4717)" fill="#4D4D4D" font-family="'MyriadPro-Semibold'" font-size="11.0396">4</text>
	</g>
</g>
<g>
	<g>
		<path fill="#CCCCCC" d="M320,396c0,2.2-1.8,4-4,4h-54c-2.2,0-4-1.8-4-4v-56c0-2.2,1.8-4,4-4h54c2.2,0,4,1.8,4,4V396z"/>
	</g>
	<g>
		<g>
			<path fill="#E6E6E6" d="M318,394c0,2.2-1.8,4-4,4h-54c-2.2,0-4-1.8-4-4v-54c0-2.2,1.8-4,4-4h54c2.2,0,4,1.8,4,4V394z"/>
		</g>
		<text transform="matrix(1 0 0 1 272.1191 379.9609)" fill="#666666" font-family="'Lato-Regular'" font-size="44.1584">X</text>
		<text transform="matrix(1 0 0 1 304.3564 391.4717)" fill="#4D4D4D" font-family="'MyriadPro-Semibold'" font-size="11.0396">8</text>
	</g>
</g>
<g>
	<g>
		<path fill="#CCCCCC" d="M400,396c0,2.2-1.8,4-4,4h-54c-2.2,0-4-1.8-4-4v-56c0-2.2,1.8-4,4-4h54c2.2,0,4,1.8,4,4V396z"/>
	</g>
	<g>
		<g>
			<path fill="#E6E6E6" d="M398,394c0,2.2-1.8,4-4,4h-54c-2.2,0-4-1.8-4-4v-54c0-2.2,1.8-4,4-4h54c2.2,0,4,1.8,4,4V394z"/>
		</g>
		<text transform="matrix(1 0 0 1 352.1191 379.9609)" fill="#666666" font-family="'Lato-Regular'" font-size="44.1584">Y</text>
		<text transform="matrix(1 0 0 1 384.3555 391.4717)" fill="#4D4D4D" font-family="'MyriadPro-Semibold'" font-size="11.0396">4</text>
	</g>
</g>
<g>
	<g>
		<path fill="#CCCCCC" d="M80,476c0,2.2-1.8,4-4,4H22c-2.2,0-4-1.8-4-4v-56c0-2.2,1.8-4,4-4h54c2.2,0,4,1.8,4,4V476z"/>
	</g>
	<g>
		<g>
			<path fill="#E6E6E6" d="M78,474c0,2.2-1.8,4-4,4H20c-2.2,0-4-1.8-4-4v-54c0-2.2,1.8-4,4-4h54c2.2,0,4,1.8,4,4V474z"/>
		</g>
		<text transform="matrix(1 0 0 1 32.1187 459.9609)" fill="#666666" font-family="'Lato-Regular'" font-size="44.1584">Z</text>
		<text transform="matrix(1 0 0 1 62.3564 471.4717)" fill="#4D4D4D" font-family="'MyriadPro-Semibold'" font-size="11.0396">10</text>
	</g>
</g>
<g>
	<g>
		<path fill="#CCCCCC" d="M160,476c0,2.2-1.8,4-4,4h-54c-2.2,0-4-1.8-4-4v-56c0-2.2,1.8-4,4-4h54c2.2,0,4,1.8,4,4V476z"/>
	</g>
	<g>
		<g>
			<path fill="#E6E6E6" d="M158,474c0,2.2-1.8,4-4,4h-54c-2.2,0-4-1.8-4-4v-54c0-2.2,1.8-4,4-4h54c2.2,0,4,1.8,4,4V474z"/>
		</g>
	</g>
</g>
<g>
	<path fill="#4D4D4D" d="M480,76c0,2.2-1.8,4-4,4h-56c-2.2,0-4-1.8-4-4V20c0-2.2,1.8-4,4-4h56c2.2,0,4,1.8,4,4V76z"/>
</g>
<g>
	<g>
		<path fill="#00C3E5" d="M480,156c0,2.2-1.8,4-4,4h-56c-2.2,0-4-1.8-4-4v-56c0-2.2,1.8-4,4-4h56c2.2,0,4,1.8,4,4V156z"/>
	</g>
	<circle opacity="0.5" fill="none" stroke="#E6E6E6" stroke-width="2" stroke-miterlimit="10" cx="448" cy="128" r="24"/>
	<circle opacity="0.5" fill="#E6E6E6" cx="448" cy="128" r="8"/>
</g>
<g>
	<path fill="#999999" d="M400,476c0,2.2-1.8,4-4,4h-56c-2.2,0-4-1.8-4-4v-56c0-2.2,1.8-4,4-4h56c2.2,0,4,1.8,4,4V476z"/>
</g>
<g>
	<path fill="#E6E6E6" d="M316,418c1.103,0,2,0.897,2,2v56c0,1.103-0.897,2-2,2h-56c-1.103,0-2-0.897-2-2v-56c0-1.103,0.897-2,2-2
		H316 M316,416h-56c-2.2,0-4,1.8-4,4v56c0,2.2,1.8,4,4,4h56c2.2,0,4-1.8,4-4v-56C320,417.8,318.2,416,316,416L316,416z"/>
</g>
<g>
	<g>
		<path fill="#F1986B" d="M480,476c0,2.2-1.8,4-4,4h-56c-2.2,0-4-1.8-4-4v-56c0-2.2,1.8-4,4-4h56c2.2,0,4,1.8,4,4V476z"/>
	</g>
	<text transform="matrix(1 0 0 1 422.8379 456.374)" fill="#FAFAFA" font-family="'Lato-Regular'" font-size="28.3998">DW</text>
</g>
<g>
	<g>
		<path fill="#2FE29B" d="M480,396c0,2.2-1.8,4-4,4h-56c-2.2,0-4-1.8-4-4v-56c0-2.2,1.8-4,4-4h56c2.2,0,4,1.8,4,4V396z"/>
	</g>
	<text transform="matrix(1 0 0 1 425.1016 376.375)" fill="#FAFAFA" font-family="'Lato-Regular'" font-size="28.4008">TW</text>
</g>
<g>
	<g>
		<path fill="#63BCB8" d="M480,316c0,2.2-1.8,4-4,4h-56c-2.2,0-4-1.8-4-4v-56c0-2.2,1.8-4,4-4h56c2.2,0,4,1.8,4,4V316z"/>
	</g>
	<text transform="matrix(1 0 0 1 430.1289 296.375)" fill="#FAFAFA" font-family="'Lato-Regular'" font-size="28.4008">DL</text>
</g>
<g>
	<g>
		<path fill="#63DCFF" d="M480,236c0,2.2-1.8,4-4,4h-56c-2.2,0-4-1.8-4-4v-56c0-2.2,1.8-4,4-4h56c2.2,0,4,1.8,4,4V236z"/>
	</g>
	<text transform="matrix(1 0 0 1 432.543 216.375)" fill="#FAFAFA" font-family="'Lato-Regular'" font-size="28.4004">TL</text>
</g>
<g>
	<g>
		<path fill="#00C3E5" d="M240,476c0,2.2-1.8,4-4,4h-56c-2.2,0-4-1.8-4-4v-56c0-2.2,1.8-4,4-4h56c2.2,0,4,1.8,4,4V476z"/>
	</g>
	<polygon opacity="0.5" fill="none" stroke="#E6E6E6" stroke-width="2" stroke-miterlimit="10" points="208,458.018 
		198.111,463.217 200,452.205 192,444.406 203.056,442.801 208,432.783 212.944,442.801 224,444.406 216,452.205 217.889,463.217 	
		"/>
</g>
</svg>
